<svg id="Layer_1" data-name="Layer 1" xmlns="http://www.w3.org/2000/svg" viewBox="0 0 728 208"><defs><style>.cls-1{fill:#009de0;}</style></defs><title>horizontal_logo</title><path class="cls-1" d="M34.64,44.87a10.14,10.14,0,0,1,.17-1.67,4.49,4.49,0,0,1,.71-1.75,6.24,6.24,0,0,1,1.14-1.32A2,2,0,0,1,38,39.6h8.6a8.29,8.29,0,0,1,3,.62A5.9,5.9,0,0,1,52,41.89l74.93,105V44.69a5.07,5.07,0,0,1,.27-1.66,6.76,6.76,0,0,1,.7-1.49,5.18,5.18,0,0,1,1-1.23,2,2,0,0,1,1.32-.53h8.07a2.51,2.51,0,0,1,1.58.53,5.15,5.15,0,0,1,1.23,1.31,8.77,8.77,0,0,1,.88,1.76,5.43,5.43,0,0,1,.35,1.84V159.47a16.77,16.77,0,0,1-.18,2.2,9.13,9.13,0,0,1-.61,2.37,8.35,8.35,0,0,1-1.05,1.84,2,2,0,0,1-1.67.79H128.71a8.74,8.74,0,0,1-4.21-1.14,11.23,11.23,0,0,1-3.51-2.9L48.5,65.05V88.4a12.81,12.81,0,0,0,.44,3.24,14.2,14.2,0,0,0,1.23,3.16c.53,1,1.11,2,1.76,3s1.31,2,2,3,1.38,2,2,3a32.39,32.39,0,0,1,1.76,3.07A17.4,17.4,0,0,1,58.94,110a12.19,12.19,0,0,1,.45,3.34v49.49a2.44,2.44,0,0,1-.45,1.49,6.23,6.23,0,0,1-1,1.14,5.15,5.15,0,0,1-1.49.88,4.36,4.36,0,0,1-1.58.35h-16a3.74,3.74,0,0,1-1.49-.35,5.37,5.37,0,0,1-1.4-.88,3.83,3.83,0,0,1-1-1.23,3,3,0,0,1-.35-1.4Z"/><path class="cls-1" d="M160.3,46.27a5.38,5.38,0,0,1,.61-2.45,8.41,8.41,0,0,1,1.59-2.2,6.92,6.92,0,0,1,2.19-1.49,6.22,6.22,0,0,1,2.45-.53h70a6.2,6.2,0,0,1,1.32.18,10.8,10.8,0,0,1,1.49.44,2.69,2.69,0,0,1,1.14.79,1.87,1.87,0,0,1,.44,1.23V50a3.12,3.12,0,0,1-.35,1.4,3.83,3.83,0,0,1-1,1.23,5.37,5.37,0,0,1-1.4.88,3.74,3.74,0,0,1-1.49.35h-59.5a2.49,2.49,0,0,0-1,.18,1.82,1.82,0,0,0-.79.61,7.88,7.88,0,0,0-.62.88,1.78,1.78,0,0,0-.26,1V93.66a2.26,2.26,0,0,0,.26,1,3.86,3.86,0,0,0,.7,1,4,4,0,0,0,1,.7,2.28,2.28,0,0,0,1,.27h59.15a3.85,3.85,0,0,1,1.4.26,5.88,5.88,0,0,1,1.23.61,4.67,4.67,0,0,1,1,.88,1.82,1.82,0,0,1,.44,1.23v6.67a3.62,3.62,0,0,1-.35,1.49,4.6,4.6,0,0,1-1,1.4,7.77,7.77,0,0,1-1.32,1.06,2.63,2.63,0,0,1-1.4.43h-50.2A2.85,2.85,0,0,0,186,111a3.22,3.22,0,0,0-1.75,1.75,2.85,2.85,0,0,0-.27,1.14v35.1a2.32,2.32,0,0,0,.27,1.06,2.21,2.21,0,0,0,.79.88,4.27,4.27,0,0,0,1,.52,3.22,3.22,0,0,0,1.05.18h51.08a4.92,4.92,0,0,1,1.49.26,13.26,13.26,0,0,1,1.49.61,4.82,4.82,0,0,1,1.23.88,1.68,1.68,0,0,1,.52,1.23v9.12a2.4,2.4,0,0,1-.26,1.06,5.81,5.81,0,0,1-.61,1,3.09,3.09,0,0,1-.79.71,1.93,1.93,0,0,1-1,.26H167.14a6.89,6.89,0,0,1-2.28-.44,10.34,10.34,0,0,1-2.28-1.14,5.65,5.65,0,0,1-1.67-1.67,4,4,0,0,1-.61-2.19Z"/><path class="cls-1" d="M257.88,46.27a5.39,5.39,0,0,1,.62-2.45,8.57,8.57,0,0,1,1.57-2.2,7.08,7.08,0,0,1,2.2-1.49,6.23,6.23,0,0,1,2.46-.53h70a6.12,6.12,0,0,1,1.32.18,10.8,10.8,0,0,1,1.49.44,2.69,2.69,0,0,1,1.14.79,1.82,1.82,0,0,1,.44,1.23V50a3.12,3.12,0,0,1-.35,1.4,4,4,0,0,1-1,1.23,5.72,5.72,0,0,1-1.4.88,3.74,3.74,0,0,1-1.49.35h-59.5a2.49,2.49,0,0,0-1,.18,1.88,1.88,0,0,0-.79.61,7.88,7.88,0,0,0-.62.88,1.87,1.87,0,0,0-.26,1V93.66a2.39,2.39,0,0,0,.26,1,3.67,3.67,0,0,0,.71,1,3.81,3.81,0,0,0,1,.7,2.28,2.28,0,0,0,1,.27h59.15a3.85,3.85,0,0,1,1.4.26,5.88,5.88,0,0,1,1.23.61,5,5,0,0,1,1,.88,1.86,1.86,0,0,1,.43,1.23v6.67a3.62,3.62,0,0,1-.35,1.49,4.6,4.6,0,0,1-1,1.4,7.77,7.77,0,0,1-1.32,1.06,2.63,2.63,0,0,1-1.4.43h-50.2a2.85,2.85,0,0,0-1.14.27,3.22,3.22,0,0,0-1,.7,3.39,3.39,0,0,0-.7,1,2.85,2.85,0,0,0-.27,1.14v35.1a2.32,2.32,0,0,0,.27,1.06,2.37,2.37,0,0,0,.79.88,4.27,4.27,0,0,0,1.05.52,3.22,3.22,0,0,0,1.05.18H335.8a4.93,4.93,0,0,1,1.5.26,13.26,13.26,0,0,1,1.49.61,4.82,4.82,0,0,1,1.23.88,1.73,1.73,0,0,1,.53,1.23v9.12a2.42,2.42,0,0,1-.27,1.06,5.22,5.22,0,0,1-.61,1,3.09,3.09,0,0,1-.79.71,1.9,1.9,0,0,1-1,.26H264.73a6.94,6.94,0,0,1-2.29-.44,10.34,10.34,0,0,1-2.28-1.14,5.62,5.62,0,0,1-1.66-1.67,4,4,0,0,1-.62-2.19Z"/><path class="cls-1" d="M456.2,39.78a6.7,6.7,0,0,1,2.55.53,10.49,10.49,0,0,1,2.45,1.4,8.39,8.39,0,0,1,1.85,1.93,4,4,0,0,1,.7,2.28V68.56A3.19,3.19,0,0,1,463.4,70a7.22,7.22,0,0,1-1,1.4,4.21,4.21,0,0,1-1.31,1,3.06,3.06,0,0,1-1.41.35H441.64a3.62,3.62,0,0,1-1.5-.35,5.69,5.69,0,0,1-1.4-.87,4.64,4.64,0,0,1-1.05-1.32,3,3,0,0,1-.44-1.49V57a3.83,3.83,0,0,0-.27-1.4,4.1,4.1,0,0,0-.79-1.32,4.06,4.06,0,0,0-1.22-1,3.19,3.19,0,0,0-1.41-.35H374.94a2.24,2.24,0,0,0-1.31.44,4.59,4.59,0,0,0-1.06,1,5.46,5.46,0,0,0-.7,1.41,4.17,4.17,0,0,0-.26,1.32V92.43a2.67,2.67,0,0,0,.44,1.14c.29.53.67,1.17,1.14,1.94s1,1.57,1.58,2.45,1.2,1.81,1.84,2.81a31.89,31.89,0,0,1,1.84,3.25,34.87,34.87,0,0,1,1.58,3.59,27.86,27.86,0,0,1,1.15,3.86,18.79,18.79,0,0,1,.43,4v32.82a4.44,4.44,0,0,0,.35,1.93,3.54,3.54,0,0,0,.88,1.14,2.21,2.21,0,0,0,1.14.53,9.13,9.13,0,0,0,1.32.09H445a2.62,2.62,0,0,0,1.4-.44,4,4,0,0,0,1.15-1.06,5.24,5.24,0,0,0,.7-1.4,4.82,4.82,0,0,0,.26-1.49V123a4.36,4.36,0,0,1,.35-1.58,4.52,4.52,0,0,1,1-1.49,7.7,7.7,0,0,1,1.31-1.06,2.66,2.66,0,0,1,1.41-.43h6.67a3.1,3.1,0,0,1,1.49.43A4.42,4.42,0,0,1,462,120a6.49,6.49,0,0,1,.87,1.58,4.16,4.16,0,0,1,.35,1.58V159a5.85,5.85,0,0,1-.7,2.63,9.91,9.91,0,0,1-1.84,2.55,10.4,10.4,0,0,1-2.46,1.84,5.8,5.8,0,0,1-2.72.7H363.36a7.21,7.21,0,0,1-2.72-.61,8.73,8.73,0,0,1-2.63-1.67,8.94,8.94,0,0,1-1.85-2.37,5.4,5.4,0,0,1-.7-2.55V46.8a5.47,5.47,0,0,1,.62-2.46,8.56,8.56,0,0,1,1.67-2.28,8.07,8.07,0,0,1,2.36-1.66,6,6,0,0,1,2.55-.62Z"/><path class="cls-1" d="M573.42,86.29l0,33.63-6.92-.14.07-33.46,6.89,0Zm35.76-1v5.39l-3.92.06.14,29.81-7.72-.15L597.61,91l-3.75,0-.07-5.18,15.39-.54ZM594.07,65.61a17.66,17.66,0,0,1,2,.13c.82.09,1.52.23,2,.33a11,11,0,0,1,4.51,2.63,8.28,8.28,0,0,1,1.82,2.7,7.83,7.83,0,0,1,.52,1.74,10.12,10.12,0,0,1,.14,2,3.43,3.43,0,0,1-.35,1.43,3.18,3.18,0,0,1-.86,1,4.38,4.38,0,0,1-1.21.64,4.88,4.88,0,0,1-1.38.25,5.31,5.31,0,0,1-1.38-.14,4.55,4.55,0,0,1-1.28-.53,3.24,3.24,0,0,1-.92-1,3,3,0,0,1-.43-1.32l-.4-4.11c0-.39,0-.91-.11-1.37a2.2,2.2,0,0,0-.43-1.14,4.32,4.32,0,0,0-1.13-.84,4.72,4.72,0,0,0-1.59-.52,3.93,3.93,0,0,0-1.82.15A4.51,4.51,0,0,0,590,69a2.43,2.43,0,0,0-.5,1.19,9.56,9.56,0,0,0-.15,1.56c-.15,11.75-.07,23.17,0,33.18s-.37,19.43-.48,26.54a8,8,0,0,1-.52,2.68,9.86,9.86,0,0,1-1.35,2.41,8.83,8.83,0,0,1-1.92,1.85,6.42,6.42,0,0,1-2.31,1,18.85,18.85,0,0,1-4.94.22,15.75,15.75,0,0,1-4.49-.92,16.5,16.5,0,0,1-2.23-1.08,10.41,10.41,0,0,1-2.32-1.78,7.2,7.2,0,0,1-1.64-2.66,7.1,7.1,0,0,1-.33-1.71,8,8,0,0,1,.1-2,4.1,4.1,0,0,1,.44-1.41,3.12,3.12,0,0,1,.78-1,2.91,2.91,0,0,1,1-.54,3.13,3.13,0,0,1,1.14-.12,3.42,3.42,0,0,1,1.12.28,3.36,3.36,0,0,1,1,.66,4,4,0,0,1,.79,1,4.55,4.55,0,0,1,.43,1.42c.23,1.53.38,3.72.49,5.19a2.55,2.55,0,0,0,.36,1.1,3.65,3.65,0,0,0,.79.93,4.88,4.88,0,0,0,2.33,1,4,4,0,0,0,1.25,0,2.63,2.63,0,0,0,1.06-.44,2.29,2.29,0,0,0,.76-.89,3.27,3.27,0,0,0,.29-1.44L582.13,73a10.56,10.56,0,0,1,.74-1.84A9.59,9.59,0,0,1,584,69.53a8.65,8.65,0,0,1,1.51-1.44,10.72,10.72,0,0,1,2-1.21,15,15,0,0,1,2.5-.79,17.49,17.49,0,0,1,2.36-.38c.31,0,.62-.07.91-.08Zm62.11-40.17-.65,0a12,12,0,0,0-2.25.37,13.44,13.44,0,0,0-1.63.66,16.66,16.66,0,0,0-1.55.93,10.84,10.84,0,0,0-1.64,1.43,18.42,18.42,0,0,0-1.35,1.72,13.69,13.69,0,0,0-1.05,2.1,6.32,6.32,0,0,1-.47,1,.59.59,0,0,1-.42.29c-.22,0-5.44.58-11.61,1.2l-11.2,1.12-.4.4c-.49.51-2,2.11-7.56,8.35-2.49,2.76-4.68,5.09-4.86,5.15s-10.94,1-23.92,2.06l-23.57,1.93-5.27-5.35-5.26-5.33-8.27.85c-4.56.47-8.47.84-8.71.82a.54.54,0,0,1-.43-.2,3.13,3.13,0,0,1-.35-.78,9.12,9.12,0,0,0-.86-1.71,9.42,9.42,0,0,0-1.08-1.27,7.68,7.68,0,0,0-1.38-.91,4.9,4.9,0,0,0-1.86-.48,4.6,4.6,0,0,0-1.89.19,9,9,0,0,0-1.57.74A8.82,8.82,0,0,0,523.64,42a11.13,11.13,0,0,0-1.31,1.87,14.51,14.51,0,0,0-.89,2.38,8.21,8.21,0,0,0-.26,1.36,10.14,10.14,0,0,0,0,1.57,10.62,10.62,0,0,0,.42,2.63,10,10,0,0,0,.69,1.63,9.35,9.35,0,0,0,1.07,1.35A7.19,7.19,0,0,0,524.89,56a4.69,4.69,0,0,0,.91.41,5.65,5.65,0,0,0,1.37.12,5.82,5.82,0,0,0,1.37-.12,6.1,6.1,0,0,0,1-.39,8.35,8.35,0,0,0,1.76-1.24,10,10,0,0,0,1.36-1.6,10.44,10.44,0,0,0,.79-1.51c.19-.47.42-.76.61-.81s3.41-.35,7.2-.69,7.17-.66,7.53-.71l.67-.09,1.13,1.13L553,53a11.54,11.54,0,0,1,1,1.1c.2.26.27.43.23.5a8.13,8.13,0,0,1-2.56.41A15.28,15.28,0,0,0,546,56.42a14,14,0,0,0-2.38,1.5,17.13,17.13,0,0,0-1.77,1.73,19.44,19.44,0,0,0-1.5,2.12,16.87,16.87,0,0,0-1.19,2.51c-.26.71-.59,1.8-.74,2.43a12.78,12.78,0,0,0-.22,2.08c0,1-.08,2.55-.11,4.91,0,3.21-.09,5.84-.1,5.84l-4.36.23-4.32.19-.68-.71c-.37-.39-1.41-1.56-2.31-2.58-2.88-3.25-8-8.94-8.49-9.5a1.9,1.9,0,0,1-.5-.78,7.17,7.17,0,0,1,.43-1.31,17,17,0,0,0,.65-1.94,13.64,13.64,0,0,0,.13-3.86,8,8,0,0,0-.28-1.23,13.84,13.84,0,0,0-.62-1.71,8.67,8.67,0,0,0-1-1.33,6.33,6.33,0,0,0-1.44-1.17,6.92,6.92,0,0,0-1.66-.57,4.08,4.08,0,0,0-1.55,0,10.12,10.12,0,0,0-1.4.48,6.36,6.36,0,0,0-1.8,1.37,8.42,8.42,0,0,0-1.51,2.06,12.92,12.92,0,0,0-.72,1.91,13.48,13.48,0,0,0-.34,2.15,8.55,8.55,0,0,0,.17,2.47,11.94,11.94,0,0,0,.71,2.21,8.47,8.47,0,0,0,1.28,1.84,6.5,6.5,0,0,0,1.36,1.13,8.23,8.23,0,0,0,1.28.46,4,4,0,0,0,1.4.11l.66-.08.7.72c.38.4,2,2.16,3.47,3.9s2.8,3.21,2.85,3.25,6.51,7.37,6.9,7.85l.32.4,5.25-.16c2.88-.09,5.28-.14,5.34-.1s.13,4.13.13,9.1c0,4,0,6.29,0,7.55s-.1,1.51-.21,1.56-4.82.09-10.4.09-10.23-.06-10.33-.13a2.25,2.25,0,0,1-.45-.88,12.52,12.52,0,0,0-.78-1.73,8,8,0,0,0-1.35-1.68,6.91,6.91,0,0,0-1.5-1,5.76,5.76,0,0,0-1.71-.38,4.53,4.53,0,0,0-1.87.2,6,6,0,0,0-1.56.87,8.42,8.42,0,0,0-1.21,1.15,10.3,10.3,0,0,0-.92,1.51,11.61,11.61,0,0,0-.71,2.11,9.23,9.23,0,0,0-.16,2.71,12.72,12.72,0,0,0,.38,2.5,11.3,11.3,0,0,0,.78,1.77,8.94,8.94,0,0,0,1.29,1.63,7.55,7.55,0,0,0,1.71,1.21,5,5,0,0,0,.93.33,5.11,5.11,0,0,0,1,.1,4.35,4.35,0,0,0,1-.08,5.69,5.69,0,0,0,1-.35,5,5,0,0,0,1-.56,7.45,7.45,0,0,0,.91-.83,9.05,9.05,0,0,0,1.32-1.83,6,6,0,0,0,.41-1c0-.08.12-.17.27-.21s5,0,10.71,0l10.43.1.05,8.49c0,4.68,0,8.54-.07,8.6s-2.46,0-5.31-.11l-5.18-.21-.85.89c-.46.49-2.55,2.84-4.63,5.2s-4.24,4.82-4.78,5.45a6.82,6.82,0,0,1-1.12,1.15,4.14,4.14,0,0,1-1-.61,8.66,8.66,0,0,0-1.42-.88,5.36,5.36,0,0,0-2.94-.3,6.19,6.19,0,0,0-1.5.6,6.65,6.65,0,0,0-2.36,2.58,10.49,10.49,0,0,0-.78,6.53,10.29,10.29,0,0,0,2.35,4.57,7.14,7.14,0,0,0,1.84,1.3,4.87,4.87,0,0,0,5-.44,8.2,8.2,0,0,0,1.37-1.39,9.65,9.65,0,0,0,1.59-5.42v-1.43l3.22-3.58c1.76-2,3.59-4,4.06-4.56l2.24-2.52,1.39-1.57h1.16c.64,0,2.62.1,4.4.2l3.25.18.1,3.4a37.78,37.78,0,0,0,.36,4.78,21.25,21.25,0,0,0,.71,2.61,20.83,20.83,0,0,0,1,2.22,21.38,21.38,0,0,0,1.46,2.11,14,14,0,0,0,1.64,1.73c.41.34,1,.83,1.37,1.07a14.13,14.13,0,0,0,1.77,1,13.28,13.28,0,0,0,2.54.82c.78.15,2.58.36,4,.45s2.7.22,2.87.25.32.16.32.27a43.53,43.53,0,0,1-3.26,3.58l-3.26,3.38-7.8-.73c-4.3-.4-7.88-.79-8-.87a2.58,2.58,0,0,1-.37-.81,11.94,11.94,0,0,0-.58-1.43,15.15,15.15,0,0,0-1-1.58,9.08,9.08,0,0,0-1.53-1.5,5.59,5.59,0,0,0-7.18.44,8.7,8.7,0,0,0-2.23,6,11.08,11.08,0,0,0,1,4.65,9.83,9.83,0,0,0,1.42,2.1,6,6,0,0,0,7.31,1.5,8.34,8.34,0,0,0,1.27-1.11A8.18,8.18,0,0,0,533,164.4a5.69,5.69,0,0,1,.55-1c.07,0,4.15.35,9.07.86l8.94.93,6.13-6.22,6.11-6.21,8.88.72,21.65,1.74c7,.56,12.9,1,13.08,1.07a16.41,16.41,0,0,1,2.32,2.26c1.1,1.21,2.1,2.31,2.24,2.44s3.2,3.56,4.79,5.35c.37.43,1.11,1.22,1.62,1.78s1.59,1.73,2.39,2.62a15.4,15.4,0,0,0,1.28,1.32,1.49,1.49,0,0,0,.72.43c.3.07,5.7.64,12,1.28S646.25,175,646.35,175a3.34,3.34,0,0,1,.65,1,15.93,15.93,0,0,0,.92,1.6,11.71,11.71,0,0,0,1.18,1.4,17.79,17.79,0,0,0,1.53,1.35,11.07,11.07,0,0,0,1.86,1.08,12.14,12.14,0,0,0,1.93.68,12.41,12.41,0,0,0,2.26.23,10.52,10.52,0,0,0,2.4-.27,10.08,10.08,0,0,0,2-.82,10.88,10.88,0,0,0,1.8-1.33,10.71,10.71,0,0,0,1.35-1.63,5.57,5.57,0,0,0,.64-1.29,2.29,2.29,0,0,1,.25-.61,3.77,3.77,0,0,0,.29-.93,15.81,15.81,0,0,0,.25-1.87,9.68,9.68,0,0,0-.18-2.46,15,15,0,0,0-.48-1.9c-.13-.31-.34-.8-.48-1.1a12.48,12.48,0,0,0-1.17-1.78,11.82,11.82,0,0,0-3.63-3.22,12.93,12.93,0,0,0-1.82-.81,7.06,7.06,0,0,0-1.32-.35,11.11,11.11,0,0,0-1.61-.09,8.61,8.61,0,0,0-6.54,2.66,6.85,6.85,0,0,0-1.72,2.56,7.75,7.75,0,0,0-.39.92c-.06.18-.24.26-.55.26s-3.86-.31-8-.69l-10.16-.94-2.64-.24-.7-.72c-.38-.4-1.15-1.21-1.69-1.81L621,162.12l-2.25-2.48c-.89-1-1.7-1.83-1.81-1.89a.3.3,0,0,1-.09-.35c0-.15.29-.23.72-.23s1.83.1,3.28.23,3.48.25,4.55.25a17.14,17.14,0,0,0,3.15-.23c.67-.14,1.64-.39,2.17-.57a18.51,18.51,0,0,0,1.72-.74,17.78,17.78,0,0,0,2-1.28A14.49,14.49,0,0,0,636.5,153a20.89,20.89,0,0,0,1.38-1.74c.31-.46.75-1.18,1-1.6a20,20,0,0,0,.81-2,19.19,19.19,0,0,0,.58-2.17c.1-.53.2-2.73.24-4.87,0-2.84.11-3.9.25-3.94s2.83.05,6.06.2l5.88.28,8.55,8.61c3,3,5.15,5.21,6.51,6.64a12.89,12.89,0,0,1,1.95,2.21,5.43,5.43,0,0,0-.2.91,8.08,8.08,0,0,0,.12,1.8,19.17,19.17,0,0,0,.43,2,12.47,12.47,0,0,0,.69,1.78,14.19,14.19,0,0,0,.89,1.56,14.34,14.34,0,0,0,1.3,1.5,13.83,13.83,0,0,0,1.35,1.15,17.06,17.06,0,0,0,1.71,1.1,13.22,13.22,0,0,0,4.3,1.22,8.68,8.68,0,0,0,2.46-.17,15.3,15.3,0,0,0,2.27-.67,10.73,10.73,0,0,0,2-1.21,10.41,10.41,0,0,0,1.65-1.55,9.59,9.59,0,0,0,.91-1.46,5.81,5.81,0,0,1,.42-.77,6.2,6.2,0,0,0,.35-.92c.14-.47.3-1.11.36-1.4a13.18,13.18,0,0,0,.11-1.7,13,13,0,0,0-.15-1.93,15,15,0,0,0-.4-1.47,12.28,12.28,0,0,0-.44-1.17,17.38,17.38,0,0,0-.89-1.54,12.81,12.81,0,0,0-1.55-1.94,15,15,0,0,0-1.63-1.38,13.94,13.94,0,0,0-1.69-.94,15.74,15.74,0,0,0-2.26-.75,11.66,11.66,0,0,0-2.38-.32,13.43,13.43,0,0,0-2.19.22,13.08,13.08,0,0,0-2.52,1l-1.44.72-4.06-4c-5.09-5.06-8.5-8.45-10.67-10.56a28.44,28.44,0,0,0-3.27-3c-.17,0-3.51-.18-7.43-.32s-7.15-.3-7.22-.36-.1-4.59-.08-10.06l0-9.94,7.65,0c4.21,0,11.31.07,15.77.12l8.09.1a19.74,19.74,0,0,0,1.43,2.4,10,10,0,0,0,3.22,2.81,16.5,16.5,0,0,0,2,.89,14.17,14.17,0,0,0,2.36.5,8.78,8.78,0,0,0,1.42.09,6.91,6.91,0,0,0,1.33-.18,14.6,14.6,0,0,0,2.21-.62,13.4,13.4,0,0,0,1.73-.88,11.42,11.42,0,0,0,1.68-1.29,13.49,13.49,0,0,0,1.37-1.55,10.79,10.79,0,0,0,1.87-5,11.58,11.58,0,0,0-.35-4.18,5.75,5.75,0,0,0-.32-1,11.31,11.31,0,0,0-2.39-3.47,10,10,0,0,0-1.29-1.15,8.58,8.58,0,0,0-1.43-.84,13.61,13.61,0,0,0-2.62-1,10.85,10.85,0,0,0-2.86-.16,9.3,9.3,0,0,0-2.59.4,19.24,19.24,0,0,0-2,.9,8,8,0,0,0-1.15.75,12.41,12.41,0,0,0-1.21,1.07,13.18,13.18,0,0,0-1.1,1.23,7.79,7.79,0,0,0-.73,1.24q-.5,1-1,2H640.6l0-10.63c0-4.22,0-6.87,0-8.49a8.55,8.55,0,0,1,.14-2.22c.11,0,3.51-.17,7.54-.3s7.36-.26,7.37-.28l17.09-16.92,5.34-5.3h1.07a10,10,0,0,0,2.24-.32c.63-.17,1.43-.43,1.78-.57a15.19,15.19,0,0,0,1.65-.91,14.15,14.15,0,0,0,2-1.66,12.81,12.81,0,0,0,1.62-2.05,8.52,8.52,0,0,0,.93-1.83,15,15,0,0,0,.54-2.07,16.85,16.85,0,0,0,.25-2.11,8.37,8.37,0,0,0-.13-2.06,6.21,6.21,0,0,0-.38-1.25,10.57,10.57,0,0,0-.87-1.75,10.14,10.14,0,0,0-1.37-1.76,9.92,9.92,0,0,0-1.62-1.35,11,11,0,0,0-1.57-.83,13.47,13.47,0,0,0-2.1-.59,8.72,8.72,0,0,0-2.32-.15,17.36,17.36,0,0,0-2.22.39,11.64,11.64,0,0,0-2,.71,10.11,10.11,0,0,0-1.65,1,14.26,14.26,0,0,0-1.71,1.49,11.29,11.29,0,0,0-1.33,1.6,10.35,10.35,0,0,0-1,1.72,10.69,10.69,0,0,0-1,4.62,10.67,10.67,0,0,0,.28,2.39,13.07,13.07,0,0,0,.73,2,14.63,14.63,0,0,0,.95,1.58,2.29,2.29,0,0,1,.4.73L662,65.45c-5.09,5.11-9.27,9.3-9.28,9.3l-5,.22c-2.72.13-5.44.24-6.05.24h-1.13l0-6.61c0-4.27-.12-6.94-.24-7.54a21.18,21.18,0,0,0-.58-2.09,20.82,20.82,0,0,0-.79-1.94c-.22-.42-.61-1.08-.87-1.47a20.28,20.28,0,0,0-1.33-1.68,15.85,15.85,0,0,0-2-1.86,18.19,18.19,0,0,0-2.32-1.43,20.26,20.26,0,0,0-2.16-.89,13.82,13.82,0,0,0-4.71-.65c-.93,0-2.4.08-3.25.17s-2,.16-2.44.16-.89-.07-.89-.16,1.35-1.64,3-3.45l3-3.27,10.48-1c5.76-.53,10.53-.93,10.6-.89a6,6,0,0,1,.61,1,10.81,10.81,0,0,0,1.53,1.91,8.76,8.76,0,0,0,1.07.92,6.54,6.54,0,0,0,1.12.65,11.61,11.61,0,0,0,2.07.74,11.77,11.77,0,0,0,2.15.16,9.69,9.69,0,0,0,2.09-.26c.48-.14,1.22-.39,1.65-.57a13.78,13.78,0,0,0,1.8-1,11.71,11.71,0,0,0,1.86-1.57,15.28,15.28,0,0,0,1.38-1.72,14.37,14.37,0,0,0,1-2.08,14,14,0,0,0,.68-2.62,9.51,9.51,0,0,0,.11-1.4,9.61,9.61,0,0,0-.11-1.4,10.09,10.09,0,0,0-.43-1.88,2.68,2.68,0,0,1-.22-.67,5.15,5.15,0,0,0-.5-1,13.83,13.83,0,0,0-.89-1.27c-.22-.25-.68-.71-1-1a8.22,8.22,0,0,0-1.7-1.14,10.9,10.9,0,0,0-2.24-.8,9.06,9.06,0,0,0-1.82-.18Z"/></svg>