<?xml version="1.0" encoding="utf-8"?>
<!-- Generator: Adobe Illustrator 24.0.1, SVG Export Plug-In . SVG Version: 6.00 Build 0)  -->
<svg version="1.1"
	 id="svg2" inkscape:version="0.48.4 r9939" sodipodi:docname="NEEC_Slinhas.pdf" xmlns:cc="http://creativecommons.org/ns#" xmlns:dc="http://purl.org/dc/elements/1.1/" xmlns:inkscape="http://www.inkscape.org/namespaces/inkscape" xmlns:rdf="http://www.w3.org/1999/02/22-rdf-syntax-ns#" xmlns:sodipodi="http://sodipodi.sourceforge.net/DTD/sodipodi-0.dtd" xmlns:svg="http://www.w3.org/2000/svg"
	 xmlns="http://www.w3.org/2000/svg" xmlns:xlink="http://www.w3.org/1999/xlink" x="0px" y="0px" viewBox="0 0 951.1 925.2"
	 style="enable-background:new 0 0 951.1 925.2;" xml:space="preserve">
<style type="text/css">
	.st0{fill:#009DE0;}
</style>
<defs>
	
		<inkscape:perspective  id="perspective4763" inkscape:persp3d-origin="0.5 : 0.33333333 : 1" inkscape:vp_x="0 : 0.5 : 1" inkscape:vp_y="0 : 1000 : 0" inkscape:vp_z="1 : 0.5 : 1" sodipodi:type="inkscape:persp3d">
		</inkscape:perspective>
	
		<inkscape:perspective  id="perspective4784" inkscape:persp3d-origin="372.04724 : 350.78739 : 1" inkscape:vp_x="0 : 526.18109 : 1" inkscape:vp_y="0 : 1000 : 0" inkscape:vp_z="744.09448 : 526.18109 : 1" sodipodi:type="inkscape:persp3d">
		</inkscape:perspective>
</defs>
<sodipodi:namedview  bordercolor="#666666" borderopacity="1.0" id="base" inkscape:current-layer="g3900" inkscape:cx="542.44152" inkscape:cy="504.9243" inkscape:document-units="px" inkscape:pageopacity="0.0" inkscape:pageshadow="2" inkscape:window-height="705" inkscape:window-maximized="1" inkscape:window-width="1366" inkscape:window-x="-8" inkscape:window-y="-8" inkscape:zoom="0.35" pagecolor="#ffffff" showgrid="false" units="mm">
	</sodipodi:namedview>
<g id="layer1" transform="translate(0,-2.5390623e-6)" inkscape:groupmode="layer" inkscape:label="Layer 1">
	<g id="g3099" transform="matrix(0.88294492,0,0,1,562.84575,-1140.1691)">
		<g id="g3900" transform="matrix(2.7847532,0,0,2.6197028,368.21126,-1797.194)">
			<g id="text3223-1" transform="matrix(1.1107904,0,0,1.1055596,-534.63017,18.165026)">
				<path id="path3070" inkscape:connector-curvature="0" class="st0" d="M178.2,1016.6c0-0.3,0-0.7,0.1-1.2
					c0.1-0.5,0.2-0.9,0.5-1.2c0.2-0.4,0.5-0.7,0.8-0.9c0.3-0.2,0.6-0.4,0.9-0.4h6.1c0.7,0,1.4,0.1,2.1,0.4c0.7,0.3,1.3,0.7,1.7,1.2
					l53.1,74.4v-72.4c0-0.4,0.1-0.8,0.2-1.2c0.1-0.4,0.3-0.7,0.5-1.1c0.2-0.3,0.5-0.6,0.7-0.9c0.3-0.2,0.6-0.4,0.9-0.4h5.7
					c0.4,0,0.8,0.1,1.1,0.4c0.3,0.2,0.6,0.6,0.9,0.9c0.2,0.4,0.5,0.8,0.6,1.2c0.2,0.5,0.2,0.9,0.2,1.3v81c0,0.4,0,0.9-0.1,1.6
					c-0.1,0.6-0.2,1.2-0.4,1.7c-0.2,0.5-0.5,0.9-0.7,1.3c-0.3,0.4-0.7,0.6-1.2,0.6h-7.2c-1,0-2-0.3-3-0.8c-1-0.5-1.8-1.2-2.5-2.1
					l-51.4-69.2v16.5c0,0.7,0.1,1.5,0.3,2.3c0.2,0.8,0.5,1.5,0.9,2.2c0.4,0.7,0.8,1.4,1.2,2.1c0.5,0.7,0.9,1.4,1.4,2.1
					c0.5,0.7,1,1.4,1.4,2.1c0.5,0.7,0.9,1.4,1.2,2.2c0.4,0.7,0.7,1.5,0.9,2.2c0.2,0.7,0.3,1.5,0.3,2.4v35.1c0,0.4-0.1,0.8-0.3,1.1
					c-0.2,0.3-0.5,0.6-0.7,0.8c-0.3,0.2-0.6,0.5-1.1,0.6c-0.4,0.2-0.8,0.2-1.1,0.2h-11.3c-0.3,0-0.7-0.1-1.1-0.2
					c-0.4-0.2-0.7-0.4-1-0.6c-0.3-0.2-0.5-0.5-0.7-0.9c-0.2-0.3-0.2-0.7-0.2-1L178.2,1016.6z"/>
				<path id="path3072" inkscape:connector-curvature="0" class="st0" d="M267.3,1017.6c0-0.6,0.1-1.2,0.4-1.7
					c0.3-0.6,0.7-1.1,1.1-1.6c0.5-0.5,1-0.8,1.6-1.1c0.6-0.2,1.2-0.4,1.7-0.4h49.6c0.2,0,0.6,0,0.9,0.1c0.4,0.1,0.7,0.2,1.1,0.3
					c0.3,0.1,0.6,0.3,0.8,0.6c0.2,0.2,0.3,0.5,0.3,0.9v5.5c0,0.3-0.1,0.7-0.2,1c-0.2,0.3-0.4,0.6-0.7,0.9c-0.3,0.2-0.6,0.5-1,0.6
					c-0.4,0.2-0.7,0.2-1.1,0.2h-42.2c-0.2,0-0.5,0-0.7,0.1c-0.2,0.1-0.4,0.2-0.6,0.4c-0.2,0.2-0.3,0.4-0.4,0.6
					c-0.1,0.2-0.2,0.4-0.2,0.7v26.4c0,0.2,0.1,0.5,0.2,0.7c0.1,0.2,0.3,0.5,0.5,0.7c0.2,0.2,0.4,0.4,0.7,0.5
					c0.2,0.1,0.5,0.2,0.7,0.2h41.9c0.3,0,0.7,0.1,1,0.2c0.3,0.1,0.6,0.3,0.9,0.4c0.2,0.2,0.5,0.4,0.7,0.6c0.2,0.2,0.3,0.5,0.3,0.9
					v4.7c0,0.3-0.1,0.7-0.2,1.1c-0.2,0.4-0.4,0.7-0.7,1c-0.3,0.3-0.6,0.5-0.9,0.7c-0.3,0.2-0.7,0.3-1,0.3h-35.6
					c-0.2,0-0.5,0.1-0.8,0.2c-0.3,0.1-0.5,0.3-0.7,0.5c-0.2,0.2-0.4,0.5-0.5,0.7c-0.1,0.3-0.2,0.6-0.2,0.8v24.9
					c0,0.2,0.1,0.5,0.2,0.7c0.1,0.2,0.3,0.5,0.6,0.6c0.2,0.2,0.5,0.3,0.7,0.4c0.2,0.1,0.5,0.1,0.7,0.1h36.2c0.3,0,0.7,0.1,1.1,0.2
					c0.4,0.1,0.7,0.3,1.1,0.4c0.3,0.2,0.6,0.4,0.9,0.6c0.2,0.2,0.4,0.5,0.4,0.9v6.5c0,0.2-0.1,0.5-0.2,0.7c-0.1,0.2-0.3,0.5-0.4,0.7
					c-0.2,0.2-0.4,0.4-0.6,0.5c-0.2,0.1-0.4,0.2-0.7,0.2h-51.9c-0.5,0-1-0.1-1.6-0.3c-0.6-0.2-1.1-0.5-1.6-0.8
					c-0.5-0.3-0.9-0.7-1.2-1.2c-0.3-0.5-0.4-1-0.4-1.6V1017.6z"/>
				<path id="path3074" inkscape:connector-curvature="0" class="st0" d="M336.5,1017.6c0-0.6,0.1-1.2,0.4-1.7
					c0.3-0.6,0.7-1.1,1.1-1.6c0.5-0.5,1-0.8,1.6-1.1c0.6-0.2,1.2-0.4,1.7-0.4H391c0.2,0,0.6,0,0.9,0.1c0.4,0.1,0.7,0.2,1.1,0.3
					c0.3,0.1,0.6,0.3,0.8,0.6c0.2,0.2,0.3,0.5,0.3,0.9v5.5c0,0.3-0.1,0.7-0.2,1c-0.2,0.3-0.4,0.6-0.7,0.9c-0.3,0.2-0.6,0.5-1,0.6
					c-0.4,0.2-0.7,0.2-1.1,0.2h-42.2c-0.2,0-0.5,0-0.7,0.1c-0.2,0.1-0.4,0.2-0.6,0.4c-0.2,0.2-0.3,0.4-0.4,0.6
					c-0.1,0.2-0.2,0.4-0.2,0.7v26.4c0,0.2,0.1,0.5,0.2,0.7c0.1,0.2,0.3,0.5,0.5,0.7c0.2,0.2,0.4,0.4,0.7,0.5
					c0.2,0.1,0.5,0.2,0.7,0.2h41.9c0.3,0,0.7,0.1,1,0.2c0.3,0.1,0.6,0.3,0.9,0.4c0.2,0.2,0.5,0.4,0.7,0.6c0.2,0.2,0.3,0.5,0.3,0.9
					v4.7c0,0.3-0.1,0.7-0.2,1.1c-0.2,0.4-0.4,0.7-0.7,1c-0.3,0.3-0.6,0.5-0.9,0.7c-0.3,0.2-0.7,0.3-1,0.3h-35.6
					c-0.2,0-0.5,0.1-0.8,0.2c-0.3,0.1-0.5,0.3-0.7,0.5c-0.2,0.2-0.4,0.5-0.5,0.7c-0.1,0.3-0.2,0.6-0.2,0.8v24.9
					c0,0.2,0.1,0.5,0.2,0.7c0.1,0.2,0.3,0.5,0.6,0.6c0.2,0.2,0.5,0.3,0.7,0.4c0.2,0.1,0.5,0.1,0.7,0.1h36.2c0.3,0,0.7,0.1,1.1,0.2
					c0.4,0.1,0.7,0.3,1.1,0.4c0.3,0.2,0.6,0.4,0.9,0.6c0.2,0.2,0.4,0.5,0.4,0.9v6.5c0,0.2-0.1,0.5-0.2,0.7c-0.1,0.2-0.3,0.5-0.4,0.7
					c-0.2,0.2-0.4,0.4-0.6,0.5c-0.2,0.1-0.4,0.2-0.7,0.2h-51.9c-0.5,0-1-0.1-1.6-0.3c-0.6-0.2-1.1-0.5-1.6-0.8
					c-0.5-0.3-0.9-0.7-1.2-1.2c-0.3-0.5-0.4-1-0.4-1.6V1017.6z"/>
				<path id="path3076" inkscape:connector-curvature="0" class="st0" d="M477,1013c0.6,0,1.2,0.1,1.8,0.4c0.6,0.2,1.2,0.6,1.7,1
					c0.5,0.4,1,0.9,1.3,1.4c0.3,0.5,0.5,1,0.5,1.6v16c0,0.3-0.1,0.7-0.2,1c-0.2,0.3-0.4,0.7-0.7,1c-0.3,0.3-0.6,0.6-0.9,0.7
					c-0.3,0.2-0.7,0.2-1,0.2h-12.8c-0.3,0-0.7-0.1-1.1-0.2c-0.4-0.2-0.7-0.4-1-0.6c-0.3-0.2-0.5-0.6-0.7-0.9
					c-0.2-0.4-0.3-0.7-0.3-1.1v-8.3c0-0.3-0.1-0.7-0.2-1c-0.1-0.3-0.3-0.6-0.6-0.9c-0.2-0.3-0.5-0.5-0.9-0.7c-0.3-0.2-0.7-0.2-1-0.2
					h-41.6c-0.3,0-0.6,0.1-0.9,0.3c-0.3,0.2-0.5,0.5-0.7,0.7c-0.2,0.3-0.4,0.6-0.5,1c-0.1,0.4-0.2,0.7-0.2,0.9v25
					c0,0.2,0.1,0.4,0.3,0.8c0.2,0.4,0.5,0.8,0.8,1.4c0.3,0.5,0.7,1.1,1.1,1.7c0.4,0.6,0.9,1.3,1.3,2c0.5,0.7,0.9,1.5,1.3,2.3
					c0.4,0.8,0.8,1.7,1.1,2.6c0.3,0.9,0.6,1.8,0.8,2.7c0.2,1,0.3,1.9,0.3,2.8v23.3c0,0.6,0.1,1,0.2,1.4c0.2,0.3,0.4,0.6,0.6,0.8
					c0.2,0.2,0.5,0.3,0.8,0.4c0.3,0,0.6,0.1,0.9,0.1h42.3c0.3,0,0.7-0.1,1-0.3c0.3-0.2,0.6-0.5,0.8-0.7c0.2-0.3,0.4-0.6,0.5-1
					c0.1-0.4,0.2-0.7,0.2-1.1v-17.4c0-0.3,0.1-0.7,0.2-1.1c0.2-0.4,0.4-0.8,0.7-1.1c0.3-0.3,0.6-0.5,0.9-0.7c0.3-0.2,0.7-0.3,1-0.3
					h4.7c0.3,0,0.7,0.1,1.1,0.3c0.4,0.2,0.7,0.5,0.9,0.8c0.2,0.3,0.5,0.7,0.6,1.1c0.2,0.4,0.2,0.8,0.2,1.1v25.4
					c0,0.6-0.2,1.2-0.5,1.9c-0.3,0.7-0.8,1.3-1.3,1.8c-0.5,0.5-1.1,1-1.7,1.3c-0.6,0.3-1.3,0.5-1.9,0.5h-65.3
					c-0.6,0-1.2-0.1-1.9-0.4s-1.3-0.7-1.9-1.2c-0.5-0.5-1-1.1-1.3-1.7c-0.3-0.6-0.5-1.2-0.5-1.8V1018c0-0.6,0.1-1.2,0.4-1.7
					c0.3-0.6,0.7-1.1,1.2-1.6c0.5-0.5,1.1-0.9,1.7-1.2c0.6-0.3,1.2-0.4,1.8-0.4L477,1013z"/>
			</g>
			<path id="path3295" inkscape:connector-curvature="0" class="st0" d="M-90.8,1248.7c-0.3,0-0.6,0-0.9,0c-1,0.1-2.3,0.3-3,0.5
				c-0.7,0.2-1.7,0.6-2.2,0.9c-0.5,0.3-1.4,0.8-2.1,1.2c-0.6,0.4-1.6,1.3-2.2,1.9c-0.6,0.6-1.4,1.7-1.8,2.3
				c-0.4,0.6-1.1,1.9-1.4,2.8c-0.3,0.7-0.5,1.1-0.6,1.4c-0.2,0.3-0.3,0.3-0.6,0.4c-0.3,0.1-7.3,0.8-15.5,1.6l-15,1.5l-0.5,0.5
				c-0.7,0.7-2.6,2.8-10.1,11.1c-3.3,3.7-6.3,6.8-6.5,6.9c-0.2,0.1-14.6,1.3-32,2.7l-31.6,2.6l-7-7.1l-7-7.1l-11.1,1.1
				c-6.1,0.6-11.3,1.1-11.7,1.1c-0.3,0-0.4-0.1-0.6-0.3c-0.1-0.2-0.3-0.5-0.5-1c-0.2-0.7-0.8-1.7-1.2-2.3c-0.4-0.6-1-1.3-1.5-1.7
				c-0.4-0.4-1.2-0.9-1.8-1.2c-0.7-0.4-1.5-0.6-2.5-0.6c-1-0.1-1.7,0-2.5,0.3c-0.6,0.2-1.6,0.6-2.1,1c-0.5,0.3-1.4,1.1-2,1.7
				c-0.5,0.6-1.3,1.7-1.7,2.5c-0.4,0.8-0.9,2.2-1.2,3.2c-0.2,0.7-0.3,1.2-0.4,1.8c-0.1,0.6,0,1.2,0,2.1c0.1,1.4,0.3,2.7,0.6,3.5
				c0.2,0.7,0.7,1.7,0.9,2.2c0.3,0.5,0.9,1.3,1.4,1.8c0.5,0.5,1.4,1.2,2,1.6c0.5,0.3,0.8,0.4,1.2,0.5c0.4,0.1,1,0.2,1.8,0.2
				c0.9,0,1.4-0.1,1.8-0.2c0.4-0.1,0.8-0.3,1.3-0.5c0.7-0.3,1.7-1,2.4-1.6c0.6-0.6,1.5-1.6,1.8-2.1c0.4-0.6,0.8-1.5,1.1-2
				c0.3-0.6,0.6-1,0.8-1.1c0.2-0.1,4.6-0.5,9.6-0.9c5.1-0.5,9.6-0.9,10.1-0.9l0.9-0.1l1.5,1.5c0.8,0.8,2.3,2.3,3.3,3.4
				c0.6,0.6,1,1.1,1.3,1.5s0.4,0.6,0.3,0.7c-0.1,0.2-1.3,0.4-3.4,0.6c-2.7,0.1-5.4,0.8-7.7,1.9c-1,0.5-2.5,1.4-3.2,2
				c-0.7,0.6-1.8,1.6-2.4,2.3c-0.6,0.7-1.5,1.9-2,2.8c-0.5,0.9-1.3,2.4-1.6,3.3c-0.3,0.9-0.8,2.4-1,3.2c-0.1,0.6-0.2,1.4-0.3,2.8
				c-0.1,1.4-0.1,3.4-0.1,6.5c-0.1,4.3-0.1,7.8-0.1,7.8c0,0-2.6,0.1-5.8,0.3l-5.8,0.3l-0.9-0.9c-0.5-0.5-1.9-2.1-3.1-3.4
				c-3.8-4.3-10.7-11.9-11.4-12.7c-0.4-0.4-0.7-0.9-0.7-1c0-0.2,0.3-1,0.6-1.8c0.3-0.8,0.7-1.9,0.9-2.6c0.2-0.6,0.3-2,0.3-3.2
				c0-0.8,0-1.4-0.1-2c-0.1-0.6-0.2-1.1-0.4-1.6c-0.3-0.8-0.6-1.9-0.8-2.3c-0.2-0.4-0.8-1.2-1.3-1.8c-0.5-0.6-1.4-1.3-1.9-1.6
				c-0.6-0.3-1.5-0.6-2.2-0.8c-0.8-0.1-1.5-0.2-2.1,0c-0.5,0.1-1.3,0.4-1.9,0.6c-0.6,0.3-1.5,1-2.4,1.8c-0.9,0.9-1.6,1.9-2,2.7
				c-0.3,0.7-0.8,1.9-1,2.6c-0.2,0.7-0.4,2-0.4,2.9c-0.1,1.2,0,2.1,0.2,3.3c0.2,0.9,0.6,2.2,0.9,2.9c0.3,0.7,1.1,1.8,1.7,2.4
				c0.6,0.6,1.4,1.3,1.8,1.5s1.2,0.5,1.7,0.6c0.5,0.1,1.4,0.2,1.9,0.1l0.9-0.1l0.9,1c0.5,0.5,2.6,2.9,4.6,5.2c2,2.3,3.7,4.3,3.8,4.3
				c0.2,0.1,8.7,9.8,9.2,10.5l0.4,0.5l7-0.2c3.9-0.1,7.1-0.2,7.2-0.1c0.1,0,0.2,5.5,0.2,12.1c0,5.4,0,8.4-0.1,10.1
				c0,1.7-0.1,2-0.3,2.1c-0.2,0.1-6.4,0.1-13.9,0.1c-7.5,0-13.7-0.1-13.8-0.2c-0.1-0.1-0.4-0.6-0.6-1.2c-0.2-0.6-0.7-1.6-1-2.3
				c-0.4-0.7-1.2-1.7-1.8-2.2c-0.6-0.5-1.5-1.2-2-1.4s-1.5-0.5-2.3-0.5c-1-0.1-1.7,0-2.5,0.3c-0.6,0.2-1.6,0.7-2.1,1.1
				c-0.5,0.4-1.3,1.1-1.6,1.5c-0.3,0.4-0.9,1.3-1.2,2c-0.3,0.7-0.8,2-0.9,2.8c-0.2,1.1-0.3,2.1-0.2,3.6c0.1,1.2,0.3,2.6,0.5,3.3
				c0.2,0.7,0.7,1.8,1,2.4c0.3,0.6,1.1,1.6,1.7,2.2s1.6,1.3,2.3,1.6c0.4,0.2,0.8,0.4,1.2,0.4c0.4,0.1,0.8,0.1,1.4,0.1
				c0.6,0,1,0,1.4-0.1s0.8-0.2,1.3-0.5c0.5-0.2,0.9-0.4,1.3-0.7c0.4-0.3,0.8-0.7,1.2-1.1c0.7-0.7,1.5-1.8,1.8-2.4
				c0.3-0.6,0.6-1.3,0.6-1.4c0-0.1,0.2-0.2,0.4-0.3c0.2-0.1,6.7,0,14.4,0l14,0.1l0.1,11.3c0,6.2,0,11.4-0.1,11.5
				c-0.1,0.1-3.3,0-7.1-0.1l-6.9-0.3l-1.1,1.2c-0.6,0.7-3.4,3.8-6.2,6.9c-2.8,3.2-5.7,6.4-6.4,7.3c-0.7,0.8-1.4,1.5-1.5,1.5
				c-0.1,0-0.7-0.4-1.3-0.8s-1.5-1-1.9-1.2c-1.3-0.5-2.7-0.7-3.9-0.4c-0.6,0.1-1.5,0.5-2,0.8c-1.3,0.9-2.4,2-3.2,3.4
				c-1.3,2.7-1.6,5.7-1,8.7c0.6,2.2,1.6,4.5,3.1,6.1c0.7,0.7,1.6,1.3,2.5,1.7c2.2,1,4.7,0.8,6.7-0.6c0.6-0.4,1.4-1.3,1.8-1.9
				c1.5-2.1,2.1-4.9,2.1-7.2v-1.9l4.3-4.8c2.4-2.6,4.8-5.4,5.4-6.1c0.6-0.7,2-2.2,3-3.4l1.9-2.1l1.6,0c0.9,0,3.5,0.1,5.9,0.3
				l4.4,0.2l0.1,4.5c0.1,2.9,0.3,5.2,0.5,6.4c0.2,1,0.6,2.6,0.9,3.5c0.3,0.9,0.9,2.2,1.3,3c0.4,0.7,1.3,2,2,2.8s1.6,1.9,2.2,2.3
				c0.5,0.5,1.4,1.1,1.8,1.4c0.5,0.3,1.5,0.9,2.4,1.3c0.8,0.4,2.3,0.9,3.4,1.1c1.1,0.2,3.5,0.5,5.3,0.6c1.9,0.1,3.6,0.3,3.8,0.3
				c0.2,0,0.4,0.2,0.4,0.4s-2,2.3-4.4,4.8l-4.4,4.5l-10.4-1c-5.7-0.5-10.5-1.1-10.7-1.2c-0.1-0.1-0.4-0.6-0.5-1.1
				c-0.1-0.5-0.5-1.3-0.8-1.9c-0.3-0.6-0.9-1.5-1.3-2.1c-0.5-0.6-1.4-1.5-2-2c-3.1-2.2-7.1-1.8-9.6,0.6c-2.2,2.1-3,5.3-3,8
				c0,2.2,0.4,4.3,1.3,6.2c0.4,0.8,1.2,2.1,1.9,2.8c2.6,3,6.7,3.6,9.8,2c0.4-0.3,1.2-0.9,1.7-1.5c0.5-0.6,1.2-1.5,1.5-2.2
				c0.3-0.7,0.7-1.2,0.7-1.3c0.1-0.1,5.6,0.5,12.1,1.1l12,1.2l8.2-8.3l8.2-8.3l11.9,1c6.5,0.5,19.6,1.6,29,2.3
				c9.4,0.7,17.3,1.4,17.5,1.4c0.2,0,1.6,1.4,3.1,3c1.5,1.6,2.8,3.1,3,3.3c0.3,0.3,4.3,4.7,6.4,7.1c0.5,0.6,1.5,1.6,2.2,2.4
				c0.7,0.7,2.1,2.3,3.2,3.5c0.8,0.9,1.3,1.4,1.7,1.8c0.4,0.3,0.7,0.5,1,0.6c0.4,0.1,7.6,0.8,16.1,1.7c8.4,0.9,15.4,1.6,15.6,1.6
				c0.1,0,0.5,0.6,0.9,1.3c0.3,0.7,0.9,1.6,1.2,2.1c0.3,0.5,1.1,1.3,1.6,1.9c0.5,0.5,1.4,1.3,2,1.8c0.6,0.4,1.7,1.1,2.5,1.4
				c0.8,0.3,1.9,0.8,2.6,0.9c0.6,0.2,2,0.3,3,0.3c1.1,0,2.4-0.1,3.2-0.4c0.7-0.2,2-0.7,2.7-1.1c0.7-0.4,1.8-1.2,2.4-1.8
				c0.6-0.6,1.4-1.5,1.8-2.2c0.4-0.6,0.8-1.4,0.9-1.7c0.1-0.3,0.2-0.7,0.3-0.8c0.1-0.1,0.3-0.7,0.4-1.2c0.1-0.6,0.3-1.7,0.3-2.5
				c0.1-1,0-2.1-0.2-3.3c-0.2-1-0.5-2.1-0.7-2.5c-0.2-0.4-0.5-1.1-0.6-1.5c-0.2-0.4-0.9-1.5-1.6-2.4c-1.3-1.8-3-3.2-4.9-4.3
				c-0.4-0.3-1.5-0.8-2.4-1.1c-0.7-0.2-1.2-0.4-1.8-0.5c-0.6-0.1-1.2-0.1-2.2-0.1c-3.4-0.2-6.5,1.3-8.8,3.5c-1.1,1-1.8,2.2-2.3,3.4
				c-0.2,0.5-0.5,1-0.5,1.2c-0.1,0.2-0.3,0.4-0.7,0.4c-0.3,0-5.2-0.4-10.7-0.9c-5.6-0.5-11.7-1.1-13.6-1.3l-3.5-0.3l-0.9-1
				c-0.5-0.5-1.5-1.6-2.3-2.4c-0.7-0.8-1.7-1.9-2.2-2.4s-1.8-2-3-3.3c-1.2-1.3-2.3-2.4-2.4-2.5s-0.2-0.3-0.1-0.5
				c0.1-0.2,0.4-0.3,1-0.3c0.5,0,2.5,0.1,4.4,0.3c1.9,0.2,4.7,0.3,6.1,0.3c1.6,0,3.2-0.1,4.2-0.3c0.9-0.2,2.2-0.5,2.9-0.8
				c0.7-0.2,1.7-0.7,2.3-1c0.6-0.3,1.8-1,2.7-1.7c0.9-0.7,2.2-1.7,2.8-2.4c0.6-0.7,1.4-1.7,1.8-2.3c0.4-0.6,1-1.6,1.3-2.1
				c0.3-0.6,0.8-1.7,1.1-2.6c0.3-0.9,0.7-2.2,0.8-2.9c0.1-0.7,0.3-3.6,0.3-6.5c0.1-3.8,0.2-5.2,0.3-5.3c0.1,0,3.8,0.1,8.1,0.3
				l7.9,0.4l11.5,11.5c4,4,6.9,6.9,8.7,8.8c1.8,1.9,2.6,2.8,2.6,2.9c-0.1,0.2-0.2,0.7-0.3,1.2c-0.1,0.5,0,1.6,0.1,2.4
				c0.1,0.8,0.4,2,0.6,2.6c0.2,0.6,0.6,1.7,0.9,2.4c0.3,0.7,0.9,1.6,1.2,2.1s1.1,1.3,1.7,2c0.6,0.6,1.1,1.1,1.8,1.5
				c0.7,0.5,1.4,1,2.3,1.5c0.4,0.2,1.5,0.7,2.5,1c0.9,0.3,2.4,0.6,3.3,0.7c1.1,0.1,2.1,0,3.3-0.2c0.9-0.2,2.3-0.6,3-0.9
				c0.7-0.3,2-1,2.7-1.6c0.8-0.6,1.8-1.5,2.2-2.1c0.4-0.6,1-1.4,1.2-1.9c0.2-0.5,0.5-1,0.6-1c0.1-0.1,0.3-0.6,0.5-1.2
				s0.4-1.5,0.5-1.9c0.1-0.4,0.1-1.4,0.1-2.3c0-0.8-0.1-2-0.2-2.6c-0.1-0.6-0.4-1.5-0.5-2c-0.2-0.5-0.4-1.2-0.6-1.6
				c-0.2-0.3-0.7-1.3-1.2-2.1c-0.5-0.8-1.4-2-2.1-2.6c-0.6-0.6-1.6-1.5-2.2-1.8c-0.5-0.4-1.6-0.9-2.3-1.3c-0.7-0.3-2.1-0.8-3-1
				c-0.9-0.2-2.4-0.4-3.2-0.4c-0.8,0-2.1,0.1-2.9,0.3c-0.8,0.2-2.3,0.7-3.4,1.3l-1.9,1l-5.4-5.4c-6.8-6.7-11.4-11.3-14.3-14.1
				s-4.2-4-4.4-4c-0.2,0-4.7-0.2-9.9-0.4c-5.2-0.2-9.6-0.4-9.7-0.5c-0.1-0.1-0.1-6.1-0.1-13.4l0.1-13.2l10.2,0
				c5.6,0,15.1,0.1,21.1,0.2l10.8,0.1c0.6,1.1,1.2,2.2,1.9,3.2c0.4,0.6,1.2,1.5,1.8,2c0.6,0.5,1.7,1.3,2.5,1.7
				c0.8,0.4,1.9,0.9,2.6,1.2c0.7,0.2,2.1,0.5,3.2,0.7c0.8,0.1,1.4,0.1,1.9,0.1c0.5,0,1-0.1,1.8-0.2c1-0.2,2.3-0.6,3-0.8
				c0.7-0.3,1.7-0.8,2.3-1.2c0.6-0.4,1.6-1.1,2.2-1.7c0.6-0.6,1.4-1.5,1.8-2.1c1.5-2.2,2.2-4.2,2.5-6.6c0.2-2,0-3.6-0.5-5.6
				c-0.1-0.5-0.3-1.1-0.4-1.3c-0.8-1.8-1.9-3.3-3.2-4.6c-0.7-0.7-1.2-1.1-1.7-1.5c-0.5-0.4-1.1-0.7-1.9-1.1
				c-1.1-0.5-2.6-1.1-3.5-1.3c-1.1-0.2-2.2-0.3-3.8-0.2c-1.5,0.1-2.7,0.3-3.5,0.5c-0.7,0.2-1.9,0.8-2.7,1.2c-0.5,0.3-1,0.6-1.5,1
				c-0.5,0.4-1.1,0.9-1.6,1.4c-0.6,0.6-1.1,1.1-1.5,1.6c-0.4,0.5-0.7,1-1,1.6c-0.4,0.9-0.9,1.8-1.3,2.7h-20.8h-20.8l-0.1-14.2
				c0-5.6,0-9.2,0-11.3c0-2.2,0.1-2.9,0.2-3c0.1-0.1,4.7-0.2,10.1-0.4c5.4-0.2,9.8-0.3,9.9-0.4c0.1-0.1,16.4-16.1,22.9-22.5l7.2-7.1
				h1.4c0.8,0,2.1-0.2,3-0.4c0.9-0.2,1.9-0.6,2.4-0.8c0.5-0.2,1.4-0.7,2.2-1.2c0.8-0.5,1.9-1.4,2.7-2.2c0.8-0.8,1.5-1.8,2.2-2.7
				c0.5-0.8,0.9-1.6,1.2-2.4c0.3-0.9,0.6-1.8,0.7-2.8c0.2-0.9,0.3-1.9,0.3-2.8c0.1-0.9,0-1.8-0.2-2.7c-0.1-0.6-0.3-1.1-0.5-1.7
				c-0.3-0.8-0.7-1.6-1.2-2.3c-0.5-0.8-1.1-1.6-1.8-2.3c-0.7-0.7-1.4-1.3-2.2-1.8c-0.7-0.4-1.5-0.9-2.1-1.1
				c-0.6-0.2-1.8-0.6-2.8-0.8c-1.2-0.2-2.2-0.3-3.1-0.2c-0.7,0.1-2.1,0.3-3,0.5c-0.9,0.2-1.8,0.5-2.7,0.9c-0.8,0.4-1.5,0.8-2.2,1.3
				c-0.8,0.6-1.6,1.3-2.3,2c-0.7,0.7-1.3,1.4-1.8,2.1c-0.5,0.7-0.9,1.5-1.3,2.3c-0.4,0.9-0.8,1.9-1,2.9c-0.2,1.1-0.4,2.2-0.4,3.3
				c0,1.1,0.2,2.4,0.4,3.2c0.2,0.8,0.6,2,1,2.7c0.3,0.7,0.9,1.6,1.3,2.1c0.3,0.5,0.6,0.9,0.5,1c0,0.1-5.7,5.6-12.5,12.5
				c-6.8,6.8-12.4,12.4-12.4,12.4c0,0-3,0.1-6.7,0.3c-3.6,0.2-7.3,0.3-8.1,0.3h-1.5l-0.1-8.8c-0.1-5.7-0.2-9.2-0.3-10
				c-0.1-0.7-0.5-1.9-0.8-2.8c-0.3-0.9-0.8-2-1.1-2.6c-0.3-0.6-0.8-1.5-1.2-2s-1.1-1.5-1.8-2.2c-0.6-0.7-1.9-1.8-2.7-2.5
				c-0.9-0.6-2.3-1.5-3.1-1.9c-0.9-0.4-2.2-1-2.9-1.2c-0.7-0.2-1.9-0.5-2.7-0.6c-0.7-0.1-2.4-0.2-3.6-0.2c-1.3,0-3.2,0.1-4.4,0.2
				c-1.1,0.1-2.6,0.2-3.3,0.2c-0.7,0-1.2-0.1-1.2-0.2c0-0.1,1.8-2.2,4-4.6l4-4.4l14-1.3c7.7-0.7,14.1-1.2,14.2-1.2
				c0.1,0.1,0.5,0.6,0.8,1.3c0.4,0.7,1.3,1.8,2,2.6c0.5,0.5,1,0.9,1.4,1.2c0.5,0.3,1,0.6,1.5,0.9c0.8,0.4,2.1,0.8,2.8,1
				c0.7,0.1,2,0.2,2.9,0.2c0.9,0,2.1-0.2,2.8-0.4c0.6-0.2,1.6-0.5,2.2-0.8c0.6-0.2,1.7-0.8,2.4-1.3s1.9-1.4,2.5-2.1
				c0.6-0.7,1.4-1.7,1.8-2.3c0.4-0.6,1-1.9,1.4-2.8c0.4-0.9,0.8-2.5,0.9-3.5c0.1-0.7,0.1-1.3,0.1-1.9s0-1.1-0.1-1.9
				c-0.1-1-0.4-2.1-0.6-2.5c-0.2-0.4-0.3-0.8-0.3-0.9c0-0.1-0.3-0.7-0.7-1.3c-0.4-0.6-0.9-1.4-1.2-1.7c-0.3-0.3-0.9-1-1.4-1.4
				c-0.5-0.4-1.5-1.1-2.3-1.5c-0.8-0.4-2.1-0.9-3-1.1C-89.2,1248.8-90,1248.7-90.8,1248.7L-90.8,1248.7z M-174,1302.2
				c1,0,1.9,0.1,2.7,0.2c1.1,0.1,2,0.3,2.7,0.4c0.9,0.2,1.9,0.6,2.9,1.2c1.1,0.6,2.1,1.3,3.1,2.3c1,1,1.8,2.2,2.4,3.6
				c0.3,0.7,0.5,1.5,0.7,2.3c0.1,0.8,0.2,1.7,0.2,2.7c0,0.7-0.2,1.4-0.5,1.9c-0.3,0.5-0.7,1-1.2,1.4c-0.5,0.4-1,0.7-1.6,0.9
				c-0.6,0.2-1.2,0.3-1.8,0.3c-0.6,0-1.3,0-1.9-0.2c-0.6-0.1-1.2-0.4-1.7-0.7c-0.5-0.3-0.9-0.8-1.2-1.3c-0.3-0.5-0.5-1.1-0.6-1.8
				l-0.5-5.5c0-0.5-0.1-1.2-0.1-1.8c-0.1-0.6-0.3-1.2-0.6-1.5c-0.4-0.4-0.9-0.8-1.5-1.1c-0.6-0.3-1.4-0.6-2.1-0.7
				c-0.8-0.1-1.6-0.1-2.4,0.2c-0.8,0.3-1.7,0.8-2.5,1.6c-0.3,0.3-0.5,0.9-0.7,1.6c-0.1,0.7-0.2,1.4-0.2,2.1
				c-0.2,15.7-0.1,30.9,0,44.2c0.1,13.3-0.5,25.9-0.7,35.4c0,1.2-0.3,2.4-0.7,3.6c-0.4,1.1-1.1,2.2-1.8,3.2c-0.8,1-1.6,1.8-2.6,2.5
				s-2,1.1-3.1,1.4c-1.9,0.4-4.3,0.5-6.6,0.3c-2.3-0.2-4.5-0.6-6-1.2c-0.9-0.4-1.9-0.8-3-1.4c-1.1-0.6-2.2-1.4-3.1-2.4
				c-0.9-1-1.7-2.2-2.2-3.6c-0.2-0.7-0.4-1.5-0.4-2.3c-0.1-0.8,0-1.7,0.1-2.6c0.1-0.7,0.3-1.4,0.6-1.9c0.3-0.5,0.6-1,1-1.3
				c0.4-0.3,0.9-0.6,1.4-0.7c0.5-0.1,1-0.2,1.5-0.2c0.5,0,1,0.2,1.5,0.4c0.5,0.2,0.9,0.5,1.3,0.9c0.4,0.4,0.8,0.8,1.1,1.4
				c0.3,0.5,0.5,1.2,0.6,1.9c0.3,2,0.5,5,0.7,6.9c0,0.5,0.2,1,0.5,1.5c0.3,0.5,0.6,0.9,1.1,1.2c0.9,0.7,2,1.2,3.1,1.4
				c0.6,0.1,1.1,0.1,1.7,0c0.5-0.1,1-0.3,1.4-0.6c0.4-0.3,0.8-0.7,1-1.2c0.2-0.5,0.4-1.2,0.4-1.9l1.5-82.9c0.3-0.8,0.6-1.7,1-2.4
				c0.4-0.8,0.9-1.5,1.5-2.2c0.6-0.7,1.2-1.3,2-1.9c0.8-0.6,1.7-1.1,2.7-1.6c1.1-0.5,2.3-0.8,3.3-1.1c1.1-0.3,2.2-0.4,3.2-0.5
				c0.4,0,0.8-0.1,1.2-0.1C-174.7,1302.2-174.3,1302.2-174,1302.2L-174,1302.2z M-153.8,1328.4v7.2l-5.2,0.1l0.2,39.7l-10.3-0.2
				l-0.1-39.2l-5,0.1l-0.1-6.9L-153.8,1328.4L-153.8,1328.4z M-201.6,1329.8l-0.1,44.8l-9.3-0.2l0.1-44.6L-201.6,1329.8
				L-201.6,1329.8z"/>
		</g>
	</g>
</g>
</svg>
